<mxfile host="app.diagrams.net" agent="Mozilla/5.0 (Windows NT 10.0; Win64; x64) AppleWebKit/537.36 (KHTML, like Gecko) Chrome/127.0.0.0 Safari/537.36" version="24.7.6">
  <diagram id="6a731a19-8d31-9384-78a2-239565b7b9f0" name="Page-1">
    <mxGraphModel dx="2333" dy="1160" grid="1" gridSize="10" guides="1" tooltips="1" connect="1" arrows="1" fold="1" page="1" pageScale="1" pageWidth="1169" pageHeight="827" background="none" math="0" shadow="0">
      <root>
        <mxCell id="0" />
        <mxCell id="1" parent="0" />
        <mxCell id="1350" value="Regression" style="ellipse;whiteSpace=wrap;html=1;shadow=0;fontFamily=Helvetica;fontSize=20;fontColor=#FFFFFF;align=center;strokeWidth=3;fillColor=#1699D3;strokeColor=none;" parent="1" vertex="1">
          <mxGeometry x="723.5" y="640" width="158.5" height="158.5" as="geometry" />
        </mxCell>
        <mxCell id="1351" value="Clustering" style="ellipse;whiteSpace=wrap;html=1;shadow=0;fontFamily=Helvetica;fontSize=20;fontColor=#FFFFFF;align=center;strokeWidth=3;fillColor=#F08705;strokeColor=none;gradientColor=none;" parent="1" vertex="1">
          <mxGeometry x="1460" y="640" width="168.5" height="168.5" as="geometry" />
        </mxCell>
        <mxCell id="1352" value="Reinforcement" style="ellipse;whiteSpace=wrap;html=1;shadow=0;fontFamily=Helvetica;fontSize=20;fontColor=#FFFFFF;align=center;strokeWidth=3;fillColor=#E85642;strokeColor=none;" parent="1" vertex="1">
          <mxGeometry x="1086.25" y="1320" width="169" height="173.5" as="geometry" />
        </mxCell>
        <mxCell id="1357" value="Hierarchical Clustering" style="rounded=1;fillColor=#f5af58;strokeColor=none;strokeWidth=3;shadow=0;html=1;fontColor=#FFFFFF;" parent="1" vertex="1">
          <mxGeometry x="1210" y="808.5" width="140" height="40" as="geometry" />
        </mxCell>
        <mxCell id="1359" style="endArrow=none;strokeWidth=6;strokeColor=#1699D3;html=1;exitX=1;exitY=0.5;exitDx=0;exitDy=0;" parent="1" source="0aYIPC050Kr5EOdXL7-y-1547" target="1350" edge="1">
          <mxGeometry relative="1" as="geometry">
            <mxPoint x="680" y="720" as="sourcePoint" />
          </mxGeometry>
        </mxCell>
        <mxCell id="1360" style="endArrow=none;strokeWidth=6;strokeColor=#f08705;html=1;exitX=1;exitY=0.5;exitDx=0;exitDy=0;entryX=0;entryY=0;entryDx=0;entryDy=0;" parent="1" source="1515" target="0aYIPC050Kr5EOdXL7-y-1553" edge="1">
          <mxGeometry relative="1" as="geometry" />
        </mxCell>
        <mxCell id="1361" style="endArrow=none;strokeWidth=6;strokeColor=#E85642;html=1;" parent="1" source="1515" target="1352" edge="1">
          <mxGeometry relative="1" as="geometry" />
        </mxCell>
        <mxCell id="1367" value="ElasticNet Regression" style="rounded=1;fillColor=#64BBE2;strokeColor=none;strokeWidth=3;shadow=0;html=1;fontColor=#FFFFFF;" parent="1" vertex="1">
          <mxGeometry x="970" y="660" width="130" height="40" as="geometry" />
        </mxCell>
        <mxCell id="1369" value="Support vector Regression" style="rounded=1;fillColor=#64BBE2;strokeColor=none;strokeWidth=3;shadow=0;html=1;fontColor=#FFFFFF;" parent="1" vertex="1">
          <mxGeometry x="520" y="750" width="150" height="40" as="geometry" />
        </mxCell>
        <mxCell id="1370" value="Random Forest Regression" style="rounded=1;fillColor=#64BBE2;strokeColor=none;strokeWidth=3;shadow=0;html=1;fontColor=#FFFFFF;" parent="1" vertex="1">
          <mxGeometry x="955.75" y="750" width="158.5" height="40" as="geometry" />
        </mxCell>
        <mxCell id="1371" value="Decisiontree Regression" style="rounded=1;fillColor=#64BBE2;strokeColor=none;strokeWidth=3;shadow=0;html=1;fontColor=#FFFFFF;" parent="1" vertex="1">
          <mxGeometry x="874" y="838.5" width="140" height="40" as="geometry" />
        </mxCell>
        <mxCell id="1372" value="Linear Regression" style="rounded=1;fillColor=#64BBE2;strokeColor=none;strokeWidth=3;shadow=0;html=1;fontColor=#FFFFFF;" parent="1" vertex="1">
          <mxGeometry x="600" y="838.5" width="130" height="40" as="geometry" />
        </mxCell>
        <mxCell id="1373" value="Polynomial Regression" style="rounded=1;fillColor=#64BBE2;strokeColor=none;strokeWidth=3;shadow=0;html=1;fontColor=#FFFFFF;" parent="1" vertex="1">
          <mxGeometry x="480" y="668" width="130" height="40" as="geometry" />
        </mxCell>
        <mxCell id="1374" value="Ridge Regression" style="rounded=1;fillColor=#64BBE2;strokeColor=none;strokeWidth=3;shadow=0;html=1;fontColor=#FFFFFF;" parent="1" vertex="1">
          <mxGeometry x="920" y="570" width="130" height="40" as="geometry" />
        </mxCell>
        <mxCell id="1375" value="Lasso Regression" style="rounded=1;fillColor=#64BBE2;strokeColor=none;strokeWidth=3;shadow=0;html=1;fontColor=#FFFFFF;" parent="1" vertex="1">
          <mxGeometry x="737.75" y="530" width="130" height="40" as="geometry" />
        </mxCell>
        <mxCell id="1378" value="" style="edgeStyle=none;endArrow=none;strokeWidth=3;strokeColor=#64BBE2;html=1;entryX=0;entryY=0.5;entryDx=0;entryDy=0;exitX=1;exitY=0.5;exitDx=0;exitDy=0;" parent="1" source="1350" target="1367" edge="1">
          <mxGeometry x="-221.5" y="56.5" width="100" height="100" as="geometry">
            <mxPoint x="-21.5" y="525" as="sourcePoint" />
            <mxPoint x="78.5" y="425" as="targetPoint" />
          </mxGeometry>
        </mxCell>
        <mxCell id="1381" value="" style="edgeStyle=none;endArrow=none;strokeWidth=3;strokeColor=#64BBE2;html=1;entryX=1;entryY=0;entryDx=0;entryDy=0;exitX=0;exitY=0.5;exitDx=0;exitDy=0;" parent="1" source="1350" target="1369" edge="1">
          <mxGeometry x="-221.5" y="56.5" width="100" height="100" as="geometry">
            <mxPoint x="-21.5" y="525" as="sourcePoint" />
            <mxPoint x="670" y="750" as="targetPoint" />
          </mxGeometry>
        </mxCell>
        <mxCell id="1382" value="" style="edgeStyle=none;endArrow=none;strokeWidth=3;strokeColor=#64BBE2;html=1;entryX=1;entryY=0.5;entryDx=0;entryDy=0;exitX=0;exitY=0.5;exitDx=0;exitDy=0;" parent="1" source="1350" target="1373" edge="1">
          <mxGeometry x="-221.5" y="56.5" width="100" height="100" as="geometry">
            <mxPoint x="-21.5" y="525" as="sourcePoint" />
            <mxPoint x="638.5" y="699.51976386037" as="targetPoint" />
          </mxGeometry>
        </mxCell>
        <mxCell id="1383" value="" style="edgeStyle=none;endArrow=none;strokeWidth=3;strokeColor=#64BBE2;html=1;entryX=0.25;entryY=0;entryDx=0;entryDy=0;exitX=1;exitY=1;exitDx=0;exitDy=0;" parent="1" source="1350" target="1371" edge="1">
          <mxGeometry x="-221.5" y="56.5" width="100" height="100" as="geometry">
            <mxPoint x="-21.5" y="525" as="sourcePoint" />
            <mxPoint x="78.5" y="425" as="targetPoint" />
          </mxGeometry>
        </mxCell>
        <mxCell id="1384" value="" style="edgeStyle=none;endArrow=none;strokeWidth=3;strokeColor=#64BBE2;html=1;entryX=0.75;entryY=0;entryDx=0;entryDy=0;exitX=0;exitY=1;exitDx=0;exitDy=0;" parent="1" source="1350" target="1372" edge="1">
          <mxGeometry x="-221.5" y="56.5" width="100" height="100" as="geometry">
            <mxPoint x="-21.5" y="525" as="sourcePoint" />
            <mxPoint x="78.5" y="425" as="targetPoint" />
          </mxGeometry>
        </mxCell>
        <mxCell id="1385" value="" style="edgeStyle=none;endArrow=none;strokeWidth=3;strokeColor=#64BBE2;html=1;entryX=0.5;entryY=1;entryDx=0;entryDy=0;exitX=0.5;exitY=0;exitDx=0;exitDy=0;" parent="1" source="1350" target="1375" edge="1">
          <mxGeometry x="-221.5" y="56.5" width="100" height="100" as="geometry">
            <mxPoint x="-21.5" y="525" as="sourcePoint" />
            <mxPoint x="78.5" y="425" as="targetPoint" />
          </mxGeometry>
        </mxCell>
        <mxCell id="1386" value="" style="edgeStyle=none;endArrow=none;strokeWidth=3;strokeColor=#64BBE2;html=1;entryX=0.25;entryY=1;entryDx=0;entryDy=0;exitX=0.917;exitY=0.208;exitDx=0;exitDy=0;exitPerimeter=0;" parent="1" source="1350" target="1374" edge="1">
          <mxGeometry x="-221.5" y="56.5" width="100" height="100" as="geometry">
            <mxPoint x="-21.5" y="525" as="sourcePoint" />
            <mxPoint x="78.5" y="425" as="targetPoint" />
          </mxGeometry>
        </mxCell>
        <mxCell id="1387" value="" style="edgeStyle=none;endArrow=none;strokeWidth=3;strokeColor=#64BBE2;html=1;entryX=0;entryY=0;entryDx=0;entryDy=0;exitX=1;exitY=0.5;exitDx=0;exitDy=0;" parent="1" source="1350" target="1370" edge="1">
          <mxGeometry x="-221.5" y="56.5" width="100" height="100" as="geometry">
            <mxPoint x="-21.5" y="525" as="sourcePoint" />
            <mxPoint x="970" y="698.5" as="targetPoint" />
          </mxGeometry>
        </mxCell>
        <mxCell id="1388" value="K-Means Clustering" style="rounded=1;fillColor=#f5af58;strokeColor=none;strokeWidth=3;shadow=0;html=1;fontColor=#FFFFFF;" parent="1" vertex="1">
          <mxGeometry x="1230" y="704.25" width="120" height="40" as="geometry" />
        </mxCell>
        <mxCell id="1396" value="Spectral Clustering" style="rounded=1;fillColor=#f5af58;strokeColor=none;strokeWidth=3;shadow=0;html=1;fontColor=#FFFFFF;" parent="1" vertex="1">
          <mxGeometry x="1610" y="920" width="120" height="40" as="geometry" />
        </mxCell>
        <mxCell id="1397" value="Mean-Shift Clustering" style="rounded=1;fillColor=#f5af58;strokeColor=none;strokeWidth=3;shadow=0;html=1;fontColor=#FFFFFF;" parent="1" vertex="1">
          <mxGeometry x="1440" y="980" width="130" height="40" as="geometry" />
        </mxCell>
        <mxCell id="1398" value="Density-Based Clustering" style="rounded=1;fillColor=#f5af58;strokeColor=none;strokeWidth=3;shadow=0;html=1;fontColor=#FFFFFF;" parent="1" vertex="1">
          <mxGeometry x="1255.25" y="920" width="150" height="40" as="geometry" />
        </mxCell>
        <mxCell id="1399" value="" style="edgeStyle=none;endArrow=none;strokeWidth=3;strokeColor=#F5AF58;html=1;entryX=1;entryY=0;entryDx=0;entryDy=0;" parent="1" source="1351" target="1357" edge="1">
          <mxGeometry x="3.5" y="21.5" width="100" height="100" as="geometry">
            <mxPoint x="640" y="649" as="sourcePoint" />
            <mxPoint x="740" y="549" as="targetPoint" />
          </mxGeometry>
        </mxCell>
        <mxCell id="1400" value="" style="edgeStyle=none;endArrow=none;strokeWidth=3;strokeColor=#F5AF58;html=1;" parent="1" source="1351" target="1388" edge="1">
          <mxGeometry x="3.5" y="21.5" width="100" height="100" as="geometry">
            <mxPoint x="640" y="649" as="sourcePoint" />
            <mxPoint x="740" y="549" as="targetPoint" />
          </mxGeometry>
        </mxCell>
        <mxCell id="1408" value="" style="edgeStyle=none;endArrow=none;strokeWidth=3;strokeColor=#F5AF58;html=1;" parent="1" source="1351" target="1396" edge="1">
          <mxGeometry x="3.5" y="21.5" width="100" height="100" as="geometry">
            <mxPoint x="640" y="649" as="sourcePoint" />
            <mxPoint x="740" y="549" as="targetPoint" />
          </mxGeometry>
        </mxCell>
        <mxCell id="1409" value="" style="edgeStyle=none;endArrow=none;strokeWidth=3;strokeColor=#F5AF58;html=1;" parent="1" source="1351" target="1397" edge="1">
          <mxGeometry x="3.5" y="21.5" width="100" height="100" as="geometry">
            <mxPoint x="640" y="649" as="sourcePoint" />
            <mxPoint x="740" y="549" as="targetPoint" />
          </mxGeometry>
        </mxCell>
        <mxCell id="1410" value="" style="edgeStyle=none;endArrow=none;strokeWidth=3;strokeColor=#F5AF58;html=1;" parent="1" source="1351" target="1398" edge="1">
          <mxGeometry x="3.5" y="21.5" width="100" height="100" as="geometry">
            <mxPoint x="640" y="649" as="sourcePoint" />
            <mxPoint x="740" y="549" as="targetPoint" />
          </mxGeometry>
        </mxCell>
        <mxCell id="1413" value="TD Learning" style="rounded=1;fillColor=#f08e81;strokeColor=none;strokeWidth=3;shadow=0;html=1;fontColor=#FFFFFF;" parent="1" vertex="1">
          <mxGeometry x="1360" y="1500" width="120" height="40" as="geometry" />
        </mxCell>
        <mxCell id="1414" value="R Learning" style="rounded=1;fillColor=#f08e81;strokeColor=none;strokeWidth=3;shadow=0;html=1;fontColor=#FFFFFF;" parent="1" vertex="1">
          <mxGeometry x="1110.75" y="1590" width="120" height="40" as="geometry" />
        </mxCell>
        <mxCell id="1415" value="Q Learning" style="rounded=1;fillColor=#f08e81;strokeColor=none;strokeWidth=3;shadow=0;html=1;fontColor=#FFFFFF;" parent="1" vertex="1">
          <mxGeometry x="850" y="1500" width="120" height="40" as="geometry" />
        </mxCell>
        <mxCell id="1424" value="" style="edgeStyle=none;endArrow=none;strokeWidth=3;strokeColor=#F08E81;html=1;exitX=1;exitY=0.5;exitDx=0;exitDy=0;entryX=0;entryY=0;entryDx=0;entryDy=0;" parent="1" source="1352" target="1413" edge="1">
          <mxGeometry x="31" y="106.5" width="100" height="100" as="geometry">
            <mxPoint x="220" y="965" as="sourcePoint" />
            <mxPoint x="320" y="865" as="targetPoint" />
          </mxGeometry>
        </mxCell>
        <mxCell id="1425" value="" style="edgeStyle=none;endArrow=none;strokeWidth=3;strokeColor=#F08E81;html=1;" parent="1" source="1352" target="1414" edge="1">
          <mxGeometry x="31" y="106.5" width="100" height="100" as="geometry">
            <mxPoint x="220" y="965" as="sourcePoint" />
            <mxPoint x="320" y="865" as="targetPoint" />
          </mxGeometry>
        </mxCell>
        <mxCell id="1514" style="edgeStyle=orthogonalEdgeStyle;rounded=0;html=1;exitX=0.75;exitY=0;entryX=0.75;entryY=0;startArrow=none;startFill=0;endArrow=block;endFill=1;jettySize=auto;orthogonalLoop=1;strokeColor=#12aab5;strokeWidth=6;fontSize=20;fontColor=#2F5B7C;" parent="1" source="1414" target="1414" edge="1">
          <mxGeometry relative="1" as="geometry" />
        </mxCell>
        <mxCell id="1515" value="Machine Learning" style="ellipse;whiteSpace=wrap;html=1;shadow=0;fontFamily=Helvetica;fontSize=30;fontColor=#2F5B7C;align=center;strokeColor=#2F5B7C;strokeWidth=6;fillColor=#FFFFFF;fontStyle=1;gradientColor=none;" parent="1" vertex="1">
          <mxGeometry x="1014" y="40" width="313.5" height="313.5" as="geometry" />
        </mxCell>
        <mxCell id="0aYIPC050Kr5EOdXL7-y-1543" value="" style="edgeStyle=none;endArrow=none;strokeWidth=3;strokeColor=#64BBE2;html=1;entryX=0.5;entryY=0;entryDx=0;entryDy=0;exitX=0.5;exitY=1;exitDx=0;exitDy=0;" edge="1" parent="1" source="1350" target="0aYIPC050Kr5EOdXL7-y-1544">
          <mxGeometry x="-221.5" y="56.5" width="100" height="100" as="geometry">
            <mxPoint x="799.7499999999998" y="798.4999999999998" as="sourcePoint" />
            <mxPoint x="799.75" y="930" as="targetPoint" />
          </mxGeometry>
        </mxCell>
        <mxCell id="0aYIPC050Kr5EOdXL7-y-1544" value="Bayesian Linear Regression" style="rounded=1;fillColor=#64BBE2;strokeColor=none;strokeWidth=3;shadow=0;html=1;fontColor=#FFFFFF;" vertex="1" parent="1">
          <mxGeometry x="722" y="930" width="161.5" height="40" as="geometry" />
        </mxCell>
        <mxCell id="0aYIPC050Kr5EOdXL7-y-1545" value="Classification" style="ellipse;whiteSpace=wrap;html=1;shadow=0;fontFamily=Helvetica;fontSize=20;fontColor=#FFFFFF;align=center;strokeWidth=3;fillColor=#1699D3;strokeColor=none;" vertex="1" parent="1">
          <mxGeometry x="173" y="1010" width="158.5" height="158.5" as="geometry" />
        </mxCell>
        <mxCell id="0aYIPC050Kr5EOdXL7-y-1546" style="endArrow=none;strokeWidth=6;strokeColor=#1699D3;html=1;entryX=0.5;entryY=0;entryDx=0;entryDy=0;exitX=0.5;exitY=1;exitDx=0;exitDy=0;" edge="1" parent="1" source="0aYIPC050Kr5EOdXL7-y-1547" target="0aYIPC050Kr5EOdXL7-y-1545">
          <mxGeometry relative="1" as="geometry">
            <mxPoint x="680" y="730" as="sourcePoint" />
            <mxPoint x="624" y="600" as="targetPoint" />
          </mxGeometry>
        </mxCell>
        <mxCell id="0aYIPC050Kr5EOdXL7-y-1547" value="Supervised" style="ellipse;whiteSpace=wrap;html=1;shadow=0;fontFamily=Helvetica;fontSize=20;fontColor=#FFFFFF;align=center;strokeWidth=3;fillColor=#1699D3;strokeColor=none;" vertex="1" parent="1">
          <mxGeometry x="291.5" y="414" width="158.5" height="158.5" as="geometry" />
        </mxCell>
        <mxCell id="0aYIPC050Kr5EOdXL7-y-1548" style="endArrow=none;strokeWidth=6;strokeColor=#1699D3;html=1;entryX=0;entryY=0.5;entryDx=0;entryDy=0;exitX=1;exitY=0;exitDx=0;exitDy=0;" edge="1" parent="1" source="0aYIPC050Kr5EOdXL7-y-1547" target="1515">
          <mxGeometry relative="1" as="geometry">
            <mxPoint x="690" y="740" as="sourcePoint" />
            <mxPoint x="510" y="705" as="targetPoint" />
          </mxGeometry>
        </mxCell>
        <mxCell id="0aYIPC050Kr5EOdXL7-y-1550" value="" style="edgeStyle=none;endArrow=none;strokeWidth=3;strokeColor=#F08E81;html=1;entryX=1;entryY=0;entryDx=0;entryDy=0;exitX=0;exitY=0.5;exitDx=0;exitDy=0;" edge="1" parent="1" source="1352" target="1415">
          <mxGeometry x="31" y="106.5" width="100" height="100" as="geometry">
            <mxPoint x="1080" y="1407" as="sourcePoint" />
            <mxPoint x="1157" y="1590" as="targetPoint" />
          </mxGeometry>
        </mxCell>
        <mxCell id="0aYIPC050Kr5EOdXL7-y-1553" value="Unsupervised" style="ellipse;whiteSpace=wrap;html=1;shadow=0;fontFamily=Helvetica;fontSize=20;fontColor=#FFFFFF;align=center;strokeWidth=3;fillColor=#F08705;strokeColor=none;gradientColor=none;" vertex="1" parent="1">
          <mxGeometry x="1864.25" y="411" width="171" height="171" as="geometry" />
        </mxCell>
        <mxCell id="0aYIPC050Kr5EOdXL7-y-1554" style="endArrow=none;strokeWidth=6;strokeColor=#f08705;html=1;exitX=1;exitY=0;exitDx=0;exitDy=0;entryX=0;entryY=0.5;entryDx=0;entryDy=0;" edge="1" parent="1" source="1351" target="0aYIPC050Kr5EOdXL7-y-1553">
          <mxGeometry relative="1" as="geometry">
            <mxPoint x="1338" y="274" as="sourcePoint" />
            <mxPoint x="1899" y="513" as="targetPoint" />
          </mxGeometry>
        </mxCell>
        <mxCell id="0aYIPC050Kr5EOdXL7-y-1555" value="Unsupervised" style="ellipse;whiteSpace=wrap;html=1;shadow=0;fontFamily=Helvetica;fontSize=20;fontColor=#FFFFFF;align=center;strokeWidth=3;fillColor=#F08705;strokeColor=none;gradientColor=none;" vertex="1" parent="1">
          <mxGeometry x="2110" y="719" width="171" height="171" as="geometry" />
        </mxCell>
        <mxCell id="0aYIPC050Kr5EOdXL7-y-1556" value="Principal Component Analysis" style="rounded=1;fillColor=#f5af58;strokeColor=none;strokeWidth=3;shadow=0;html=1;fontColor=#FFFFFF;" vertex="1" parent="1">
          <mxGeometry x="2150" y="610" width="170" height="40" as="geometry" />
        </mxCell>
        <mxCell id="0aYIPC050Kr5EOdXL7-y-1557" value="Linear Discriminant Analysis" style="rounded=1;fillColor=#f5af58;strokeColor=none;strokeWidth=3;shadow=0;html=1;fontColor=#FFFFFF;" vertex="1" parent="1">
          <mxGeometry x="1900" y="750" width="160" height="40" as="geometry" />
        </mxCell>
        <mxCell id="0aYIPC050Kr5EOdXL7-y-1558" value="Non-negative Matrix Factorization" style="rounded=1;fillColor=#f5af58;strokeColor=none;strokeWidth=3;shadow=0;html=1;fontColor=#FFFFFF;" vertex="1" parent="1">
          <mxGeometry x="1880" y="890" width="190" height="40" as="geometry" />
        </mxCell>
        <mxCell id="0aYIPC050Kr5EOdXL7-y-1559" value="Locally Linear Embedding" style="rounded=1;fillColor=#f5af58;strokeColor=none;strokeWidth=3;shadow=0;html=1;fontColor=#FFFFFF;" vertex="1" parent="1">
          <mxGeometry x="1990" y="990" width="150" height="40" as="geometry" />
        </mxCell>
        <mxCell id="0aYIPC050Kr5EOdXL7-y-1561" style="endArrow=none;strokeWidth=6;strokeColor=#f08705;html=1;exitX=1;exitY=1;exitDx=0;exitDy=0;entryX=0;entryY=0;entryDx=0;entryDy=0;" edge="1" parent="1" source="0aYIPC050Kr5EOdXL7-y-1553" target="0aYIPC050Kr5EOdXL7-y-1555">
          <mxGeometry relative="1" as="geometry">
            <mxPoint x="1990" y="628" as="sourcePoint" />
            <mxPoint x="2250" y="460" as="targetPoint" />
          </mxGeometry>
        </mxCell>
        <mxCell id="0aYIPC050Kr5EOdXL7-y-1562" value="" style="edgeStyle=none;endArrow=none;strokeWidth=3;strokeColor=#F5AF58;html=1;exitX=0;exitY=0.5;exitDx=0;exitDy=0;entryX=1;entryY=0.5;entryDx=0;entryDy=0;" edge="1" parent="1" source="0aYIPC050Kr5EOdXL7-y-1555" target="0aYIPC050Kr5EOdXL7-y-1557">
          <mxGeometry x="3.5" y="21.5" width="100" height="100" as="geometry">
            <mxPoint x="1594" y="809" as="sourcePoint" />
            <mxPoint x="1669" y="950" as="targetPoint" />
          </mxGeometry>
        </mxCell>
        <mxCell id="0aYIPC050Kr5EOdXL7-y-1563" value="" style="edgeStyle=none;endArrow=none;strokeWidth=3;strokeColor=#F5AF58;html=1;exitX=0;exitY=1;exitDx=0;exitDy=0;entryX=1;entryY=0.5;entryDx=0;entryDy=0;" edge="1" parent="1" source="0aYIPC050Kr5EOdXL7-y-1555" target="0aYIPC050Kr5EOdXL7-y-1558">
          <mxGeometry x="3.5" y="21.5" width="100" height="100" as="geometry">
            <mxPoint x="2120" y="815" as="sourcePoint" />
            <mxPoint x="2060" y="829" as="targetPoint" />
          </mxGeometry>
        </mxCell>
        <mxCell id="0aYIPC050Kr5EOdXL7-y-1564" value="" style="edgeStyle=none;endArrow=none;strokeWidth=3;strokeColor=#F5AF58;html=1;entryX=1;entryY=0;entryDx=0;entryDy=0;" edge="1" parent="1" target="0aYIPC050Kr5EOdXL7-y-1559">
          <mxGeometry x="3.5" y="21.5" width="100" height="100" as="geometry">
            <mxPoint x="2190" y="890" as="sourcePoint" />
            <mxPoint x="2080" y="920" as="targetPoint" />
          </mxGeometry>
        </mxCell>
        <mxCell id="0aYIPC050Kr5EOdXL7-y-1565" value="" style="edgeStyle=none;endArrow=none;strokeWidth=3;strokeColor=#F5AF58;html=1;exitX=0.5;exitY=1;exitDx=0;exitDy=0;entryX=1;entryY=0;entryDx=0;entryDy=0;" edge="1" parent="1" source="0aYIPC050Kr5EOdXL7-y-1556" target="0aYIPC050Kr5EOdXL7-y-1555">
          <mxGeometry x="3.5" y="21.5" width="100" height="100" as="geometry">
            <mxPoint x="2206" y="900" as="sourcePoint" />
            <mxPoint x="2240" y="950" as="targetPoint" />
          </mxGeometry>
        </mxCell>
        <mxCell id="0aYIPC050Kr5EOdXL7-y-1566" style="endArrow=none;strokeWidth=6;strokeColor=#f08705;html=1;entryX=0;entryY=1;entryDx=0;entryDy=0;exitX=0.5;exitY=0;exitDx=0;exitDy=0;" edge="1" parent="1" source="0aYIPC050Kr5EOdXL7-y-1567" target="0aYIPC050Kr5EOdXL7-y-1553">
          <mxGeometry relative="1" as="geometry">
            <mxPoint x="1840" y="1070" as="sourcePoint" />
            <mxPoint x="1874" y="507" as="targetPoint" />
          </mxGeometry>
        </mxCell>
        <mxCell id="0aYIPC050Kr5EOdXL7-y-1567" value="Association Rule Learning" style="ellipse;whiteSpace=wrap;html=1;shadow=0;fontFamily=Helvetica;fontSize=20;fontColor=#FFFFFF;align=center;strokeWidth=3;fillColor=#F08705;strokeColor=none;gradientColor=none;" vertex="1" parent="1">
          <mxGeometry x="1670" y="1100" width="168.5" height="168.5" as="geometry" />
        </mxCell>
        <mxCell id="0aYIPC050Kr5EOdXL7-y-1568" value="FP-Growth Algorithm" style="rounded=1;fillColor=#f5af58;strokeColor=none;strokeWidth=3;shadow=0;html=1;fontColor=#FFFFFF;" vertex="1" parent="1">
          <mxGeometry x="1940" y="1140" width="130" height="40" as="geometry" />
        </mxCell>
        <mxCell id="0aYIPC050Kr5EOdXL7-y-1569" value="Apriori Algorithm" style="rounded=1;fillColor=#f5af58;strokeColor=none;strokeWidth=3;shadow=0;html=1;fontColor=#FFFFFF;" vertex="1" parent="1">
          <mxGeometry x="1470" y="1268.5" width="120" height="40" as="geometry" />
        </mxCell>
        <mxCell id="0aYIPC050Kr5EOdXL7-y-1570" value="Efficient Tree-based Algorithms" style="rounded=1;fillColor=#f5af58;strokeColor=none;strokeWidth=3;shadow=0;html=1;fontColor=#FFFFFF;" vertex="1" parent="1">
          <mxGeometry x="1664.25" y="1346.75" width="180" height="40" as="geometry" />
        </mxCell>
        <mxCell id="0aYIPC050Kr5EOdXL7-y-1571" value="Eclat Algorithm" style="rounded=1;fillColor=#f5af58;strokeColor=none;strokeWidth=3;shadow=0;html=1;fontColor=#FFFFFF;" vertex="1" parent="1">
          <mxGeometry x="1920" y="1268.5" width="120" height="40" as="geometry" />
        </mxCell>
        <mxCell id="0aYIPC050Kr5EOdXL7-y-1572" value="" style="edgeStyle=none;endArrow=none;strokeWidth=3;strokeColor=#F5AF58;html=1;exitX=1;exitY=1;exitDx=0;exitDy=0;entryX=0;entryY=0.5;entryDx=0;entryDy=0;" edge="1" parent="1" source="0aYIPC050Kr5EOdXL7-y-1567" target="0aYIPC050Kr5EOdXL7-y-1571">
          <mxGeometry x="3.5" y="21.5" width="100" height="100" as="geometry">
            <mxPoint x="1594" y="809" as="sourcePoint" />
            <mxPoint x="1669" y="950" as="targetPoint" />
          </mxGeometry>
        </mxCell>
        <mxCell id="0aYIPC050Kr5EOdXL7-y-1573" value="" style="edgeStyle=none;endArrow=none;strokeWidth=3;strokeColor=#F5AF58;html=1;exitX=0.5;exitY=1;exitDx=0;exitDy=0;entryX=0.5;entryY=0;entryDx=0;entryDy=0;" edge="1" parent="1" source="0aYIPC050Kr5EOdXL7-y-1567" target="0aYIPC050Kr5EOdXL7-y-1570">
          <mxGeometry x="3.5" y="21.5" width="100" height="100" as="geometry">
            <mxPoint x="1789" y="1145" as="sourcePoint" />
            <mxPoint x="1650" y="1149" as="targetPoint" />
          </mxGeometry>
        </mxCell>
        <mxCell id="0aYIPC050Kr5EOdXL7-y-1574" value="" style="edgeStyle=none;endArrow=none;strokeWidth=3;strokeColor=#F5AF58;html=1;exitX=1;exitY=0.5;exitDx=0;exitDy=0;entryX=0;entryY=0.5;entryDx=0;entryDy=0;" edge="1" parent="1" source="0aYIPC050Kr5EOdXL7-y-1567" target="0aYIPC050Kr5EOdXL7-y-1568">
          <mxGeometry x="3.5" y="21.5" width="100" height="100" as="geometry">
            <mxPoint x="1789" y="1264" as="sourcePoint" />
            <mxPoint x="1650" y="1271" as="targetPoint" />
          </mxGeometry>
        </mxCell>
        <mxCell id="0aYIPC050Kr5EOdXL7-y-1575" value="" style="edgeStyle=none;endArrow=none;strokeWidth=3;strokeColor=#F5AF58;html=1;exitX=0;exitY=0.5;exitDx=0;exitDy=0;entryX=0.5;entryY=0;entryDx=0;entryDy=0;" edge="1" parent="1" source="0aYIPC050Kr5EOdXL7-y-1567" target="0aYIPC050Kr5EOdXL7-y-1569">
          <mxGeometry x="3.5" y="21.5" width="100" height="100" as="geometry">
            <mxPoint x="1908" y="1264" as="sourcePoint" />
            <mxPoint x="2050" y="1271" as="targetPoint" />
          </mxGeometry>
        </mxCell>
        <mxCell id="0aYIPC050Kr5EOdXL7-y-1576" value="Isomap" style="rounded=1;fillColor=#f5af58;strokeColor=none;strokeWidth=3;shadow=0;html=1;fontColor=#FFFFFF;" vertex="1" parent="1">
          <mxGeometry x="2180" y="990" width="150" height="40" as="geometry" />
        </mxCell>
        <mxCell id="0aYIPC050Kr5EOdXL7-y-1577" value="" style="edgeStyle=none;endArrow=none;strokeWidth=3;strokeColor=#F5AF58;html=1;entryX=0.5;entryY=0;entryDx=0;entryDy=0;exitX=1;exitY=1;exitDx=0;exitDy=0;" edge="1" parent="1" source="0aYIPC050Kr5EOdXL7-y-1555" target="0aYIPC050Kr5EOdXL7-y-1576">
          <mxGeometry x="3.5" y="21.5" width="100" height="100" as="geometry">
            <mxPoint x="2200" y="900" as="sourcePoint" />
            <mxPoint x="2150" y="1000" as="targetPoint" />
          </mxGeometry>
        </mxCell>
        <mxCell id="0aYIPC050Kr5EOdXL7-y-1581" value="Support vector Machines" style="rounded=1;fillColor=#64BBE2;strokeColor=none;strokeWidth=3;shadow=0;html=1;fontColor=#FFFFFF;" vertex="1" parent="1">
          <mxGeometry x="410" y="1040" width="170" height="40" as="geometry" />
        </mxCell>
        <mxCell id="0aYIPC050Kr5EOdXL7-y-1582" value="Decisiontree Classifier" style="rounded=1;fillColor=#64BBE2;strokeColor=none;strokeWidth=3;shadow=0;html=1;fontColor=#FFFFFF;" vertex="1" parent="1">
          <mxGeometry x="400" y="1128.5" width="140" height="40" as="geometry" />
        </mxCell>
        <mxCell id="0aYIPC050Kr5EOdXL7-y-1583" value="Random Forest Classifier" style="rounded=1;fillColor=#64BBE2;strokeColor=none;strokeWidth=3;shadow=0;html=1;fontColor=#FFFFFF;" vertex="1" parent="1">
          <mxGeometry x="40" y="950" width="158.5" height="40" as="geometry" />
        </mxCell>
        <mxCell id="0aYIPC050Kr5EOdXL7-y-1584" value="K Nearest Neighbour" style="rounded=1;fillColor=#64BBE2;strokeColor=none;strokeWidth=3;shadow=0;html=1;fontColor=#FFFFFF;" vertex="1" parent="1">
          <mxGeometry x="60" y="1220" width="190" height="40" as="geometry" />
        </mxCell>
        <mxCell id="0aYIPC050Kr5EOdXL7-y-1585" value="Naive Bayes Classifier" style="rounded=1;fillColor=#64BBE2;strokeColor=none;strokeWidth=3;shadow=0;html=1;fontColor=#FFFFFF;" vertex="1" parent="1">
          <mxGeometry x="300" y="1260" width="190" height="40" as="geometry" />
        </mxCell>
        <mxCell id="0aYIPC050Kr5EOdXL7-y-1586" value="" style="edgeStyle=none;endArrow=none;strokeWidth=3;strokeColor=#64BBE2;html=1;entryX=0;entryY=0.5;entryDx=0;entryDy=0;exitX=1;exitY=0;exitDx=0;exitDy=0;" edge="1" parent="1" source="0aYIPC050Kr5EOdXL7-y-1545" target="0aYIPC050Kr5EOdXL7-y-1581">
          <mxGeometry x="-221.5" y="56.5" width="100" height="100" as="geometry">
            <mxPoint x="853" y="819" as="sourcePoint" />
            <mxPoint x="400" y="1060" as="targetPoint" />
          </mxGeometry>
        </mxCell>
        <mxCell id="0aYIPC050Kr5EOdXL7-y-1587" value="" style="edgeStyle=none;endArrow=none;strokeWidth=3;strokeColor=#64BBE2;html=1;entryX=0;entryY=0.5;entryDx=0;entryDy=0;exitX=1;exitY=0.5;exitDx=0;exitDy=0;" edge="1" parent="1" source="0aYIPC050Kr5EOdXL7-y-1545" target="0aYIPC050Kr5EOdXL7-y-1582">
          <mxGeometry x="-221.5" y="56.5" width="100" height="100" as="geometry">
            <mxPoint x="318" y="1043" as="sourcePoint" />
            <mxPoint x="410" y="1070" as="targetPoint" />
          </mxGeometry>
        </mxCell>
        <mxCell id="0aYIPC050Kr5EOdXL7-y-1588" value="" style="edgeStyle=none;endArrow=none;strokeWidth=3;strokeColor=#64BBE2;html=1;entryX=0.5;entryY=1;entryDx=0;entryDy=0;exitX=0;exitY=0;exitDx=0;exitDy=0;" edge="1" parent="1" source="0aYIPC050Kr5EOdXL7-y-1545" target="0aYIPC050Kr5EOdXL7-y-1583">
          <mxGeometry x="-221.5" y="56.5" width="100" height="100" as="geometry">
            <mxPoint x="342" y="1099" as="sourcePoint" />
            <mxPoint x="410" y="1159" as="targetPoint" />
          </mxGeometry>
        </mxCell>
        <mxCell id="0aYIPC050Kr5EOdXL7-y-1589" value="" style="edgeStyle=none;endArrow=none;strokeWidth=3;strokeColor=#64BBE2;html=1;entryX=0.25;entryY=0;entryDx=0;entryDy=0;exitX=1;exitY=1;exitDx=0;exitDy=0;" edge="1" parent="1" source="0aYIPC050Kr5EOdXL7-y-1545" target="0aYIPC050Kr5EOdXL7-y-1585">
          <mxGeometry x="-221.5" y="56.5" width="100" height="100" as="geometry">
            <mxPoint x="318" y="1155" as="sourcePoint" />
            <mxPoint x="360" y="1220" as="targetPoint" />
          </mxGeometry>
        </mxCell>
        <mxCell id="0aYIPC050Kr5EOdXL7-y-1590" value="" style="edgeStyle=none;endArrow=none;strokeWidth=3;strokeColor=#64BBE2;html=1;entryX=0.5;entryY=0;entryDx=0;entryDy=0;exitX=0;exitY=1;exitDx=0;exitDy=0;" edge="1" parent="1" source="0aYIPC050Kr5EOdXL7-y-1545" target="0aYIPC050Kr5EOdXL7-y-1584">
          <mxGeometry x="-221.5" y="56.5" width="100" height="100" as="geometry">
            <mxPoint x="262" y="1179" as="sourcePoint" />
            <mxPoint x="315" y="1300" as="targetPoint" />
          </mxGeometry>
        </mxCell>
      </root>
    </mxGraphModel>
  </diagram>
</mxfile>
